HIERARCHY
ROOT joint_Root
{
	OFFSET 0.0 0.0 0.0
	CHANNELS 6 Xposition Yposition Zposition Zrotation Xrotation Yrotation 
	JOINT Hips
	{
		OFFSET -0.726466 93.3139 -2.00062
		CHANNELS 6 Xposition Yposition Zposition Zrotation Xrotation Yrotation 
		JOINT Spine
		{
			OFFSET 15.7357 0.0 0.0
			CHANNELS 6 Xposition Yposition Zposition Zrotation Xrotation Yrotation 
			JOINT Chest
			{
				OFFSET 8.98455 -0.406207 0.0
				CHANNELS 6 Xposition Yposition Zposition Zrotation Xrotation Yrotation 
				JOINT Neck
				{
					OFFSET 16.3773 0.0 0.0
					CHANNELS 6 Xposition Yposition Zposition Zrotation Xrotation Yrotation 
					JOINT Head
					{
						OFFSET 6.45672 0.0 0.0
						CHANNELS 6 Xposition Yposition Zposition Zrotation Xrotation Yrotation 
						End Site
						{
							OFFSET 0.0 0.0 0.0
						}
					}
				}
				JOINT Shoulder_L
				{
					OFFSET 12.9942 -0.242716 4.98039
					CHANNELS 6 Xposition Yposition Zposition Zrotation Xrotation Yrotation 
					JOINT UpperArm_L
					{
						OFFSET 5.34809 0.0 0.0
						CHANNELS 6 Xposition Yposition Zposition Zrotation Xrotation Yrotation 
						JOINT LowerArm_L
						{
							OFFSET 24.3286 1.87007e-05 0.0
							CHANNELS 6 Xposition Yposition Zposition Zrotation Xrotation Yrotation 
							JOINT Hand_L
							{
								OFFSET 22.2916 0.0 0.0
								CHANNELS 6 Xposition Yposition Zposition Zrotation Xrotation Yrotation 
								End Site
								{
									OFFSET 0.0 0.0 0.0
								}
							}
						}
					}
				}
				JOINT Shoulder_R
				{
					OFFSET 12.9945 -0.242716 -4.98039
					CHANNELS 6 Xposition Yposition Zposition Zrotation Xrotation Yrotation 
					JOINT UpperArm_R
					{
						OFFSET -5.34813 0.0 0.0
						CHANNELS 6 Xposition Yposition Zposition Zrotation Xrotation Yrotation 
						JOINT LowerArm_R
						{
							OFFSET -24.3289 0.000322201 0.0
							CHANNELS 6 Xposition Yposition Zposition Zrotation Xrotation Yrotation 
							JOINT Hand_R
							{
								OFFSET -22.2915 -0.000108084 0.0
								CHANNELS 6 Xposition Yposition Zposition Zrotation Xrotation Yrotation 
								End Site
								{
									OFFSET 0.0 0.0 0.0
								}
							}
						}
					}
				}
			}
		}
		JOINT UpperLeg_L
		{
			OFFSET -2.19248 -6.46944 0.0
			CHANNELS 6 Xposition Yposition Zposition Zrotation Xrotation Yrotation 
			JOINT LowerLeg_L
			{
				OFFSET 39.0811 0.0 -1.23785e-05
				CHANNELS 6 Xposition Yposition Zposition Zrotation Xrotation Yrotation 
				JOINT Foot_L
				{
					OFFSET 40.9854 0.0 -1.26872e-05
					CHANNELS 6 Xposition Yposition Zposition Zrotation Xrotation Yrotation 
					JOINT Toes_L
					{
						OFFSET 11.7543 0.0 0.0
						CHANNELS 6 Xposition Yposition Zposition Zrotation Xrotation Yrotation 
						End Site
						{
							OFFSET 0.0 0.0 0.0
						}
					}
				}
			}
		}
		JOINT UpperLeg_R
		{
			OFFSET -2.19251 6.46944 0.0
			CHANNELS 6 Xposition Yposition Zposition Zrotation Xrotation Yrotation 
			JOINT LowerLeg_R
			{
				OFFSET -39.0811 -0.00228153 -0.0401928
				CHANNELS 6 Xposition Yposition Zposition Zrotation Xrotation Yrotation 
				JOINT Foot_R
				{
					OFFSET -40.9854 0.0 0.0
					CHANNELS 6 Xposition Yposition Zposition Zrotation Xrotation Yrotation 
					JOINT Toes_R
					{
						OFFSET -11.7543 0.0 0.0
						CHANNELS 6 Xposition Yposition Zposition Zrotation Xrotation Yrotation 
						End Site
						{
							OFFSET 0.0 0.0 0.0
						}
					}
				}
			}
		}
	}
}
MOTION
Frames:	5
Frame Time:	0.0333333
0.000000 0.000000 0.000000 0.000000 0.000000 -0.000000 -2.080940 92.884000 -0.250357 89.291900 -0.883677 1.913190 15.735700 0.000005 -0.000001 91.748900 86.822400 -91.149100 8.984550 -0.406207 -0.000000 -1.414210 0.145878 1.201160 16.377300 -0.000001 -0.000001 3.314850 -2.257140 0.999106 6.456720 -0.000001 -0.000000 7.068150 -2.167240 -3.509650 12.994200 -0.242716 4.980390 -88.964700 -3.299520 -72.569200 5.348090 -0.000007 -0.000001 -82.307500 -30.600900 -76.877400 24.328600 0.000019 0.000005 6.866770 -1.641290 -103.379000 22.291600 -0.000001 0.000005 17.472100 5.557830 -9.081120 12.994500 -0.242716 -4.980390 87.764100 7.420850 -73.180100 -5.348130 -0.000001 -0.000004 -63.925900 40.442300 -10.852700 -24.328900 0.000322 -0.000009 3.186220 9.197280 -19.208200 -22.291500 -0.000108 -0.000004 6.860000 5.359800 -1.673570 -2.192480 -6.469440 -0.000000 -176.103000 -6.817870 -1.602970 39.081100 -0.000007 -0.000012 -0.062844 0.211195 16.571000 40.985400 -0.000006 -0.000013 -0.994207 4.906900 -63.198200 11.754300 -0.000000 0.000003 -0.000002 -0.000027 -16.578600 -2.192510 6.469440 -0.000001 -179.917000 11.026500 -179.978000 -39.081100 -0.002282 -0.040193 -0.051173 0.207528 14.715500 -40.985400 0.000008 0.000006 2.209310 6.844620 -63.332500 -11.754300 -0.000006 -0.000006 -0.005979 -0.070641 -19.448100
0.000000 0.000000 0.000000 0.000000 0.000000 -0.000000 -2.060300 92.890100 -0.264262 89.283200 -0.974464 1.858940 15.735700 0.000005 -0.000001 91.708300 86.825800 -91.110800 8.984550 -0.406207 -0.000000 -1.420900 0.141320 1.196290 16.377300 -0.000001 -0.000001 3.297210 -2.203840 0.956655 6.456720 -0.000001 -0.000000 7.123040 -2.111000 -3.483860 12.994200 -0.242716 4.980390 -88.958800 -3.307100 -72.512600 5.348090 -0.000007 -0.000001 -82.232900 -30.675400 -76.813900 24.328600 0.000019 0.000005 6.959740 -1.685230 -103.545000 22.291600 -0.000001 0.000005 17.390400 5.556910 -9.036490 12.994500 -0.242716 -4.980390 87.765100 7.419230 -73.184000 -5.348130 -0.000001 -0.000004 -63.881600 40.497500 -10.943300 -24.328900 0.000322 -0.000009 3.169600 9.109680 -19.284000 -22.291500 -0.000108 -0.000004 6.826980 5.359770 -1.672620 -2.192480 -6.469440 -0.000000 -176.131000 -6.843020 -1.646100 39.081100 -0.000007 -0.000012 -0.062343 0.209881 16.543400 40.985400 -0.000006 -0.000013 -0.984633 4.818380 -63.180200 11.754300 -0.000000 0.000003 -0.000001 -0.000021 -16.578300 -2.192510 6.469440 -0.000001 -179.905000 11.007300 179.971000 -39.081100 -0.002282 -0.040193 -0.050686 0.206349 14.669500 -40.985400 0.000008 0.000006 2.200070 6.865290 -63.288300 -11.754300 -0.000006 -0.000006 -0.005707 -0.068146 -19.346300
0.000000 0.000000 0.000000 0.000000 0.000000 -0.000000 -2.027270 92.889200 -0.258975 89.273800 -1.063690 1.860260 15.735700 0.000005 -0.000001 91.705400 86.810400 -91.106000 8.984550 -0.406207 -0.000000 -1.390040 0.141930 1.200190 16.377300 -0.000001 -0.000001 3.287390 -2.187790 0.938280 6.456720 -0.000001 -0.000000 7.213010 -2.112320 -3.528690 12.994200 -0.242716 4.980390 -88.971700 -3.258420 -72.473800 5.348090 -0.000007 -0.000001 -82.009100 -30.802500 -76.423100 24.328600 0.000019 0.000005 6.812310 -1.682220 -103.807000 22.291600 -0.000001 0.000005 17.362700 5.556990 -9.040290 12.994500 -0.242716 -4.980390 87.765500 7.414470 -73.176100 -5.348130 -0.000001 -0.000004 -63.847200 40.591800 -11.031100 -24.328900 0.000322 -0.000009 3.183370 9.105830 -19.369100 -22.291500 -0.000108 -0.000004 6.916200 5.361110 -1.713430 -2.192480 -6.469440 -0.000000 -176.137000 -6.941070 -1.645920 39.081100 -0.000007 -0.000012 -0.061869 0.207958 16.568000 40.985400 -0.000006 -0.000013 -0.964375 4.816500 -63.199400 11.754300 -0.000000 0.000003 -0.000001 -0.000013 -16.578000 -2.192510 6.469440 -0.000001 -179.923000 10.938700 179.970000 -39.081100 -0.002282 -0.040193 -0.050565 0.205826 14.673700 -40.985400 0.000008 0.000006 2.181220 6.912060 -63.286700 -11.754300 -0.000006 -0.000006 -0.006267 -0.073243 -19.554200
0.000000 0.000000 0.000000 0.000000 0.000000 -0.000000 -1.994770 92.896500 -0.265406 89.303300 -1.126830 1.860710 15.735700 0.000005 -0.000001 91.725300 86.802900 -91.148100 8.984550 -0.406207 -0.000000 -1.375210 0.146445 1.155740 16.377300 -0.000001 -0.000001 3.296250 -2.167040 0.938071 6.456720 -0.000001 -0.000000 7.246450 -2.061500 -3.468360 12.994200 -0.242716 4.980390 -88.976000 -3.230870 -72.403800 5.348090 -0.000007 -0.000001 -81.416100 -30.892000 -75.332200 24.328600 0.000019 0.000005 6.418080 -1.639260 -104.269000 22.291600 -0.000001 0.000005 17.459000 5.554320 -8.912080 12.994500 -0.242716 -4.980390 87.741900 7.455760 -73.096800 -5.348130 -0.000001 -0.000004 -63.842000 40.670200 -11.042600 -24.328900 0.000322 -0.000009 3.185210 9.041970 -19.505000 -22.291500 -0.000108 -0.000004 7.053530 5.360060 -1.681830 -2.192480 -6.469440 -0.000000 -176.191000 -6.994770 -1.580450 39.081100 -0.000007 -0.000012 -0.061224 0.207133 16.466300 40.985400 -0.000006 -0.000013 -0.939857 4.815660 -63.162900 11.754300 -0.000000 0.000003 -0.000002 -0.000030 -16.578700 -2.192510 6.469440 -0.000001 -179.971000 10.892900 179.972000 -39.081100 -0.002282 -0.040193 -0.049604 0.202501 14.649600 -40.985400 0.000008 0.000006 2.165720 6.949620 -63.261900 -11.754300 -0.000006 -0.000006 -0.005877 -0.069710 -19.410100
0.000000 0.000000 0.000000 0.000000 0.000000 -0.000000 -1.973180 92.895100 -0.262220 89.319100 -1.157670 1.856630 15.735700 0.000005 -0.000001 91.423000 86.789900 -90.861200 8.984550 -0.406207 -0.000000 -1.348100 0.114743 1.124460 16.377300 -0.000001 -0.000001 3.279660 -2.187460 0.957511 6.456720 -0.000001 -0.000000 7.293380 -2.026840 -3.452530 12.994200 -0.242716 4.980390 -89.011200 -3.114330 -72.374800 5.348090 -0.000007 -0.000001 -79.878300 -31.041900 -72.996500 24.328600 0.000019 0.000005 5.297900 -1.436300 -105.128000 22.291600 -0.000001 0.000005 17.522300 5.551810 -8.790870 12.994500 -0.242716 -4.980390 87.711500 7.510960 -73.000200 -5.348130 -0.000001 -0.000004 -63.899700 40.605400 -11.054000 -24.328900 0.000322 -0.000009 3.205530 9.057200 -19.590000 -22.291500 -0.000108 -0.000004 6.974050 5.362270 -1.748870 -2.192480 -6.469440 -0.000000 -176.223000 -7.004730 -1.579410 39.081100 -0.000007 -0.000012 -0.060858 0.205901 16.466100 40.985400 -0.000006 -0.000013 -0.927327 4.800980 -63.168700 11.754300 -0.000000 0.000003 -0.000001 -0.000017 -16.578100 -2.192510 6.469440 -0.000001 179.997000 10.882400 179.938000 -39.081100 -0.002282 -0.040193 -0.050877 0.206673 14.697000 -40.985400 0.000008 0.000006 2.148440 6.941200 -63.276200 -11.754300 -0.000006 -0.000006 -0.005938 -0.070269 -19.432900
